<svg width="78" height="78" viewBox="0 0 68 68" fill="none" xmlns="http://www.w3.org/2000/svg">
<path d="M13.4584 11.3333C11.3919 11.3333 9.41003 12.1542 7.94881 13.6155C6.48759 15.0767 5.66669 17.0585 5.66669 19.125V31.8948C6.94166 30.8414 8.3763 29.9979 9.91669 29.3958V19.125C9.91669 17.17 11.5034 15.5833 13.4584 15.5833H54.5417C56.4967 15.5833 58.0834 17.17 58.0834 19.125V48.875C58.0834 50.83 56.4967 52.4167 54.5417 52.4167H31.0959L35.3459 56.6667H54.5417C55.5649 56.6667 56.5781 56.4651 57.5234 56.0736C58.4688 55.682 59.3277 55.1081 60.0512 54.3845C60.7748 53.661 61.3487 52.8021 61.7402 51.8567C62.1318 50.9114 62.3334 49.8982 62.3334 48.875V19.125C62.3334 17.0585 61.5125 15.0767 60.0512 13.6155C58.59 12.1542 56.6082 11.3333 54.5417 11.3333H13.4584Z" fill="white"/>
<path d="M24.5452 31.1667C26.1688 32.3106 27.5602 33.7529 28.645 35.4167H48.875C49.4386 35.4167 49.9791 35.1928 50.3776 34.7943C50.7761 34.3957 51 33.8552 51 33.2917C51 32.7281 50.7761 32.1876 50.3776 31.7891C49.9791 31.3905 49.4386 31.1667 48.875 31.1667H24.5452Z" fill="white"/>
<path d="M43.2083 43.9167H31.1667C31.1667 42.4433 30.9627 41.0182 30.5802 39.6667H43.2083C43.7719 39.6667 44.3124 39.8905 44.7109 40.2891C45.1095 40.6876 45.3333 41.2281 45.3333 41.7917C45.3333 42.3552 45.1095 42.8957 44.7109 43.2943C44.3124 43.6928 43.7719 43.9167 43.2083 43.9167Z" fill="white"/>
<path d="M19.125 22.6667C18.5614 22.6667 18.0209 22.8905 17.6224 23.2891C17.2239 23.6876 17 24.2281 17 24.7917C17 25.3552 17.2239 25.8957 17.6224 26.2943C18.0209 26.6928 18.5614 26.9167 19.125 26.9167H37.5417C38.1052 26.9167 38.6458 26.6928 39.0443 26.2943C39.4428 25.8957 39.6667 25.3552 39.6667 24.7917C39.6667 24.2281 39.4428 23.6876 39.0443 23.2891C38.6458 22.8905 38.1052 22.6667 37.5417 22.6667H19.125Z" fill="white"/>
<path d="M15.5833 56.6667C18.2311 56.6705 20.8138 55.8463 22.9698 54.3093L30.3733 61.71C30.5679 61.9188 30.8025 62.0862 31.0631 62.2024C31.3238 62.3185 31.6052 62.381 31.8905 62.386C32.1758 62.391 32.4593 62.3386 32.7239 62.2317C32.9885 62.1248 33.2288 61.9657 33.4306 61.7639C33.6324 61.5621 33.7915 61.3218 33.8983 61.0572C34.0052 60.7926 34.0577 60.5092 34.0527 60.2238C34.0476 59.9385 33.9852 59.6571 33.869 59.3965C33.7529 59.1358 33.5854 58.9012 33.3767 58.7067L25.976 51.3032C27.6318 48.9735 28.4569 46.155 28.3187 43.3001C28.1805 40.4453 27.087 37.7197 25.2139 35.5608C23.3407 33.402 20.7965 31.9351 17.9897 31.3957C15.1829 30.8564 12.2762 31.2757 9.73629 32.5865C7.1964 33.8973 5.1706 36.0235 3.98409 38.6238C2.79759 41.2241 2.5192 44.1477 3.19362 46.9251C3.86804 49.7026 5.45615 52.173 7.703 53.9396C9.94986 55.7062 12.7251 56.6666 15.5833 56.6667ZM15.5833 52.4167C13.329 52.4167 11.167 51.5211 9.57293 49.9271C7.97887 48.333 7.08334 46.171 7.08334 43.9167C7.08334 41.6623 7.97887 39.5003 9.57293 37.9062C11.167 36.3122 13.329 35.4167 15.5833 35.4167C17.8377 35.4167 19.9997 36.3122 21.5937 37.9062C23.1878 39.5003 24.0833 41.6623 24.0833 43.9167C24.0833 46.171 23.1878 48.333 21.5937 49.9271C19.9997 51.5211 17.8377 52.4167 15.5833 52.4167Z" fill="white"/>
</svg>
